<?xml version="1.0" encoding="utf-8"?>
<!-- Generator: Adobe Illustrator 28.0.0, SVG Export Plug-In . SVG Version: 6.00 Build 0)  -->
<svg version="1.1" id="Слой_1" xmlns="http://www.w3.org/2000/svg" xmlns:xlink="http://www.w3.org/1999/xlink" x="0px" y="0px"
	 viewBox="0 0 49 49" style="enable-background:new 0 0 49 49;" xml:space="preserve">
<style type="text/css">
	.st0{fill:none;stroke:#000000;stroke-width:2;stroke-miterlimit:333.3333;}
</style>
<path class="st0" d="M45.5,38.9c0,0.7-0.2,1.5-0.5,2.2c-0.4,0.7-0.8,1.4-1.4,2.1c-1,1.1-2.1,1.9-3.4,2.4c-1.2,0.5-2.6,0.8-4,0.8
	c-2.1,0-4.3-0.5-6.7-1.5c-2.4-1-4.7-2.4-7.1-4.1c-2.4-1.7-4.6-3.6-6.8-5.8c-2.1-2.1-4-4.4-5.8-6.7c-1.7-2.3-3.1-4.7-4-7
	c-1-2.3-1.5-4.6-1.5-6.7c0-1.4,0.2-2.7,0.7-4c0.5-1.3,1.3-2.4,2.4-3.4c1.3-1.3,2.8-1.9,4.3-1.9c0.6,0,1.2,0.1,1.7,0.4
	c0.5,0.2,1,0.6,1.4,1.2l4.8,6.7c0.4,0.5,0.6,1,0.8,1.4c0.2,0.4,0.3,0.9,0.3,1.3c0,0.5-0.1,1-0.4,1.5c-0.3,0.5-0.7,1-1.2,1.5
	l-1.6,1.6c-0.2,0.2-0.3,0.5-0.3,0.8c0,0.2,0,0.3,0.1,0.5c0.1,0.2,0.1,0.3,0.2,0.4c0.4,0.7,1,1.6,1.9,2.6c0.9,1.1,1.9,2.2,3,3.3
	c1.1,1.1,2.2,2.1,3.3,3c1.1,0.9,2,1.5,2.7,1.9c0.1,0,0.2,0.1,0.4,0.2c0.2,0.1,0.3,0.1,0.5,0.1c0.4,0,0.6-0.1,0.8-0.3l1.6-1.5
	c0.5-0.5,1-0.9,1.5-1.2c0.5-0.3,0.9-0.4,1.5-0.4c0.4,0,0.8,0.1,1.3,0.3c0.5,0.2,0.9,0.5,1.4,0.8l6.8,4.8c0.5,0.4,0.9,0.8,1.1,1.3
	C45.4,37.9,45.5,38.4,45.5,38.9z"/>
</svg>
