<?xml version="1.0" encoding="UTF-8"?>
<svg xmlns="http://www.w3.org/2000/svg" viewBox="0 0 1661.83 572.28">
  <defs>
    <style>
      .cls-1 {
        fill: #c6a908;
      }

      .cls-1, .cls-2, .cls-3, .cls-4, .cls-5, .cls-6 {
        stroke-width: 0px;
      }

      .cls-2 {
        opacity: .16;
      }

      .cls-2, .cls-4 {
        fill: #811302;
      }

      .cls-3 {
        fill: #754c24;
      }

      .cls-5 {
        fill: #534741;
      }

      .cls-6 {
        fill: #8c6239;
      }
    </style>
  </defs>
  <g id="logo">
    <g>
      <path class="cls-2" d="m312.29,214.65c.21-.07-.13,1.5,1.15,1.32-.09-.57-.41-1.05-1.15-1.32Z"/>
      <path class="cls-4" d="m387.77,420.31l110.39-96.71-22.51-12.61c-1.47-.82-2.22-2.52-1.83-4.17l17.34-73.23-61.51,13.25c-1.88.41-3.72-.87-3.98-2.78l-5.51-39.47-35,39s14,18-2,22c0,0,6,17-5,17,0,1,9,15,4,36l34-17s11-6,16,1c5.81,8.14,1,13-4,16-3.96,2.38-71.43,37.06-81.7,42.33-.78.4-1.72.25-2.34-.37l-2.39-2.39c-.78-.78-.57-2.09.4-2.59l81.03-41.98s6.34-2.65,5-6c-2-5-6-2-12,1-5.44,2.72-44.51,23.49-51.82,27.37-.73.39-1.61.38-2.33-.04l-3.98-2.27c-.8-.45-.76-1.61.06-2.02l10.08-5.04s-15.45-1.36-20-5c-5-4-5-5-5-13,0-9,8-18,8-18l.91,20.86c.06,1.46.91,2.79,2.22,3.43,2.84,1.38,8.55,3.12,17.39,1.29,1.47-.3,2.53-1.6,2.56-3.1.11-5.43.02-18.27-3.08-24.48-4-8-5-11-5-17s4-1,4-1c0,0,7,11,7,0s-3-11-3-11l6-2s6-8-5-6-20,2-23,11,4,6,4,6c0,0-2,8-7,12,0,1-1,5-1,5l-30.11,22.58c-1.05.79-2.54.61-3.37-.42l-13.92-17.2c-.89-1.1-.99-2.64-.24-3.83,2.58-4.05,7.55-14.72,3.34-32.43-.13-.53.57-.84.87-.39,3.67,5.59,12.68,20.38,15.06,34.11.22,1.27,1.65,1.91,2.74,1.21,4.97-3.21,16.31-11.17,20.77-14.32.88-.62.99-1.86.27-2.67-1.63-1.85-3.42-5.63.58-11.64,6-9,7-7,8-15l19-108-39.42,25.71c-3.51,2.29-8.22,1.01-10.1-2.73l-41.86-83.25-43.47,86.03c-1.15,2.28-4.01,3.09-6.19,1.76l-39.95-24.52,21.06,122.99c1.17,6.86-7.27,11.06-12.04,5.99l-60.02-63.97-3.35,36.06c-.34,3.67-3.84,6.2-7.43,5.37l-62.21-14.43,21.66,73.44c.78,2.64-.45,5.46-2.91,6.69l-23.75,11.87,100.08,86.21c.58.5,1.31.79,2.07.82,3.56.16,14.57,1.11,22.16,6.62,1.06.77,2.5.72,3.47-.15,3-2.71,9.44-7.6,18.56-1.67,1.09.71,2.48.74,3.63.15l21.53-11.2c1.27-.66,2.77-.83,4.1-.32,1.14.43,2.07,1.28,1.39,2.93-.39.96-1.18,1.71-2.11,2.17l-27.56,13.78c-.75.38-1.67.21-2.22-.42-1.65-1.88-5.39-5.4-9.12-3.91-4.66,1.86-5.84,5.46-4.37,9.98.37,1.14-.14,2.45-1.26,2.89-.95.38-2.16.13-3.23-1.87-2.14-4-12.14-18-38.14-11-18,5-23.17,15.04-44.59,13.02.17-.04,2.59,10.98,20.59,10.98,0,0-3,9-22,4,0,0,5,19,31,14,0,0-3,6-14,8,0,0,6,9,32,3,0,0,0,7-11,12,0,0,22,6,41-16,13.05-15.49,11.47-25,10.44-27.98-.32-.92.04-2,.94-2.39.88-.38,2.12-.12,3.62,2.38,2.88,4.79,13.1,1.32,11.3-6.91-.13-.61.17-1.24.74-1.49,4.9-2.18,24.96-12.6,24.96-12.6,0,0,4-1,0,4-3.29,4.12-14.73,9.59-18.66,11.4-.76.35-1.21,1.12-1.16,1.95.2,3.1-.65,10.63-13.08,12.51-.64.1-1.1.65-1.1,1.3v2.28c0,.84.72,1.5,1.56,1.41l15.15-1.52c.75-.07,1.08.92.43,1.3-4.35,2.6-12.15,7.76-12.15,11.37,0,5,6,7,5,16-.93,8.41.75,24.67,11.58,26.77,1.24.24,2.4-.71,2.45-1.98.25-7.13,2.48-30.46,19.98-53.8,0,0,2.68-4.46,14.77-4.11,1.14.03,1.84,1.27,1.28,2.27-1.49,2.66-4.61,7.11-8.64,10.23-1.31,1.01-1.63,2.85-.67,4.19,1.77,2.48,4.27,6.62,4.27,12.42,0,9,4,21,8,24s7,2,6-6c-.98-7.85,2.85-31.09,17.15-47.07.63-.7,1.53-1.09,2.47-1.1,13.97-.06,107.38,14.17,107.38,14.17l-10.98-35.68c-.62-2.02,0-4.22,1.59-5.61Zm-137.61-217.71c5-6,9-25,24-35s32-2,39,4,5,15,4,22c-.58,4.08,1.13,8.35,2.66,11.2.82,1.52-.31,3.36-2.04,3.36h-1.61v3.84c0,.91-1.62,3.72-2.5,3.95-.08.02-.13.01-.2.02.23,1.52-1.29,3.63-1.29,3.63,0,4-3,5-10,5s-13,9-9.35,15.87,6.35,13.13,1.35,13.13c-4.48,0-20.03-21.05-23.24-25.45-.31-.42-.15-1.01.31-1.25,13.31-7.02,12.09-21.08,11.26-25.75-.13-.73.47-1.37,1.2-1.28,3.4.43,10.47-.26,15.47-7.26,4.53-6.34,8.91-9.08,11.88-9.72.94-.2,1.34-1.31.71-2.04-2.71-3.17-6.65-6.59-12.23-8.53-1.44-.5-2.97-.77-4.49-.9-18.03-1.48-21.31,5.04-32.86,27.2-12,23-25.2,18.94-32,17-7-2-9-11-9-11,13,12,24,4,29-2Zm-30.63,24.82c7.88,2.84,13.36,5.44,15.63,7.18.96.74-.44,2.44-1.64,2.67-9.88,1.91-14.02-4.49-15.56-8.2-.41-1,.56-2.01,1.57-1.65Zm25.63,220.89c-5.03,7.9-8.03,10.96-9.78,12.05-.93.58-2.11-.3-1.86-1.37,6.64-28.61,18.24-46.16,22.24-51.58.81-1.1,2.13-1.67,3.49-1.54,11.26,1.05,21.91-4.27,21.91-4.27,0,0-3,7-5,10-1,1.5-1.25,3-1.25,4.12,0,1.26-.52,2.46-1.51,3.24-5.1,4.04-20.04,16.45-28.24,29.35Zm23.58-125.32l3.89-2.43c.94-.59,2.13-.61,3.09-.05,7.23,4.21,36.44,21.09,44.44,27.36,3.2,2.5,4,4.73,2.3,4.87-1.22.1-2.44-.25-3.45-.94-12.48-8.48-41.1-21.82-50.1-25.95-1.18-.54-1.28-2.18-.18-2.87Zm63.42,62.61l-52.88,62.65c-2.49,2.94-7.2.26-5.93-3.38l15.8-45.34c.63-1.81,1.84-3.37,3.45-4.41,4.95-3.21,16.2-11.43,21.88-23.03.74-1.52,1.77-2.88,3.01-4.03,2.95-2.75,8.31-6.14,13.68-1.45,8,7,4,15,1,19Zm-2.99-43.53c-4.42-3.41-45.31-24.51-54.01-31.47-10-8-26-51-26-51-.81,11.36-6.89,27.33-9.15,32.95-.52,1.28-1.29,2.43-2.31,3.36-14.78,13.49-18.53,25.69-18.53,25.69-7,19-4,26-14,38-13.49,16.19-30.95,15.1-36.34,14.3-.53-.08-.86.56-.49.95,16.63,17.6,33.61,22.9,39.59,24.29.56.13.55.93,0,1.05-20.84,4.25-47.24-25.57-53.42-32.97-.48-.58,0-1.45.74-1.36,47.01,5.65,50.02-31.49,56.56-46.84,5.55-13.04,18.9-25.59,23.09-29.32.99-.88,1.78-1.96,2.3-3.18,1.38-3.25,3.92-10.81,5.98-25.94,3-22,14-24,14-24,0,0,8-2,12,10,3.44,10.33,13.54,42.23,15.62,48.81.25.78.69,1.49,1.29,2.05,15.83,14.71,37.72,29.76,46.46,34.53,0,0,11.77-1.62,13.63-.38,3,2-4,2-4,2h6.91c.89,0,1.77.22,2.56.64,1.38.75,2.8,2.05-.46,3.36,0,0,5,2,0,3,0,0,5,2,0,3,0,0,2.83,1.47-1,3-5,2-14,1-14,1-4,0-6.99-5.53-6.99-5.53Z"/>
    </g>
    <path class="cls-1" d="m273.25,2.37c3.78-3.15,9.27-3.16,13.06-.02l261.85,217.25c26,21,6,27.03,6,27.03h-11.86c-2.33,0-4.21,1.88-4.21,4.21.01,15.33.06,69.54,0,113.43-.07,51.67-19.93,82.33-19.93,82.33-38,77-111,77-111,77,103-53,105-156.97,105-156.97v-132.72c0-2.73-1.21-5.32-3.31-7.06L282.28,38.44c-1.53-1.27-3.74-1.27-5.27,0L51.06,225.12c-1.7,1.4-2.67,3.49-2.64,5.69.13,10.39.46,46.13.46,133.46,0,107.67,102.27,157.33,101.27,157.33C17.15,504.6,23.15,359.6,23.15,359.6v-108.48c0-3.05-2.47-5.52-5.52-5.52H6.63c-1.45,0-2.84-.57-3.89-1.58-3.2-3.09-8.56-8.45,17.41-30.42L273.25,2.37Z"/>
    <path class="cls-3" d="m239.15,569.6s40,9,93-6c0,0,30,1,47-5,1,0-12-2-16-6,9,0,41-6,54-19,0,0-15,6-30,4,2-1,41-20,49-32-3,1-11,6-22,8,2-1,23-19,23-28,0,1-33,19-39,20,1,0,12-12,10-31-3,7-26,41-66,43,6-3,21-12,25-19-8,5-29,15-49,16,8-6,12.4-7.21,17.7-22.61-4.4,6.21-35.03,36.73-102.37,20.17.34.87,6.67,8.44,16.67,8.44-14,1-58-4-82-29,1,1,5,15,23,26,0,0-55-14-73-32,0,2,0,11,15,22,0,0-14-2-18-6,0,1,21,22,48,35,0,0-22-1-31-8,0,0,11,16,61,25,0,0-9,5-15,4,0,0,13,10,70,6,0,0-5,5-9,6Z"/>
    <path class="cls-6" d="m160.15,519.6s21,7,32,9c10.87,1.98,27,3,31,5s-20,4-31.5,1.16c-10.65-2.63-23.5-6.16-31.5-15.16Z"/>
    <path class="cls-6" d="m271.96,558.69c12.5.05,46.92-.93,73.33-12.26.38-.16.7.33.39.6-5.59,4.96-27.57,20.74-73.79,12.49-.5-.09-.44-.83.07-.83Z"/>
    <path class="cls-6" d="m285.68,534.44c-.36.04-.41.54-.07.64,4.93,1.53,21.93,6.03,44.54,3.52,27-3,46-7,54-17,0,0-42,11-58,11-12.89,0-34.56,1.23-40.47,1.84Z"/>
    <path class="cls-6" d="m182.93,539.92c-.2-.08-.34.2-.16.32,4.68,3.11,21.83,13.2,46.38,12.35,25.83-.89,41.71-1.12,52.49-5.7.87-.37.59-1.66-.35-1.61-16.1.91-75.3,3.25-98.36-5.37Z"/>
  </g>
  <g id="text">
    <path class="cls-1" d="m595.13,140.95h49.45c1.01,0,1.92.63,2.28,1.58l39.98,106.03c.2.54.96.55,1.17.01l42.42-105.94c.41-1.02,1.39-1.68,2.49-1.68h42.06c1.1,0,1.98.89,1.98,1.98v4.11c0,1.27-1.09,2.25-2.35,2.14-4.33-.39-13.11-.19-13.11,7.93,0,10.78,6.74,113.17,6.74,113.17,0,0,0,13.99,16.06,14.78.82.04,1.45.74,1.45,1.56v3.87c0,1.03-.84,1.87-1.87,1.87h-58.27c-1.01,0-1.83-.82-1.83-1.83v-5.56c0-.65.52-1.18,1.17-1.18,3.5-.01,13.65-1.02,13.65-12.16,0-12.21-4.43-86.38-5.26-100.18-.03-.53-.76-.64-.95-.14l-47.68,120.08c-.23.59-.81.98-1.44.98h-8.43c-.64,0-1.21-.39-1.45-.99l-48.22-123.41c-.24-.61-1.15-.45-1.16.2l-2.62,98.06s-1.31,19.63,15.43,18.9c.4-.02.74.29.74.69v4.81c0,.95-.77,1.73-1.73,1.73h-45.18c-.7,0-1.26-.56-1.26-1.26v-5.97c0-.63.55-1.12,1.18-1.03,3.51.49,13.78.64,16-13.82,2.69-17.51,5.39-107.78,5.39-107.78,0,0,1.26-15.17-17.03-13.67-.99.08-1.83-.7-1.83-1.69v-4.17c0-1.12.9-2.02,2.02-2.02Z"/>
    <path class="cls-1" d="m1584.66,190.1v6.81c0,1.08.88,1.96,1.96,1.96h14.5v72.75s-3,24.25,22.6,24.25c23.81,0,28.97-4.66,37.17-12.91,1.12-1.13,1.26-2.9.33-4.19-.34-.47-.65-.88-.91-1.24-.75-.99-2.15-1.14-3.15-.41-2.05,1.49-6.21,3.46-13.22,2.58-10.78-1.35-14.82-1.35-14.82-21.56v-59.28h25.31c3.13,0,5.68-2.54,5.68-5.68v-6.01c0-.99-.8-1.79-1.79-1.79h-29.21v-32.33h-7.75c-.86,0-1.6.62-1.73,1.47-.97,6.35-6.45,31.19-33.04,33.44-1.1.09-1.93,1.02-1.93,2.12Z"/>
    <path class="cls-1" d="m895.84,284.88l-.5-2c-.21-.83-1.13-1.24-1.89-.84-1.43.77-4.01,1.72-8,1.72-6.74,0-6.74-11.91-6.74-11.91v-63.53c-2.69-26.94-39.07-25.6-39.07-25.6,0,0-29.64-1.35-37.72,16.17-8.08,17.51,2.69,20.21,6.74,20.21s6.66-.97,8.08-8.08c1.35-6.74-2.69-14.82,16.17-14.82,22.26,0,19.05,26.49,17.83,34.28-.19,1.2-1.16,2.1-2.37,2.21-6.41.55-22.3,3.06-32.97,6.62-12.12,4.04-25.6,14.82-25.6,32.33s14.82,24.25,31.26,24.25c15,0,24.83-7.85,29.51-12.29.51-.49,1.35-.2,1.49.49,1.61,8.24,6.1,11.8,21.28,11.8,12.33,0,19.18-5.49,21.73-8.09.75-.77,1.04-1.87.78-2.91Zm-44.07-22.02c0,3.05-.65,6.09-2.08,8.79-2.07,3.88-6.14,8.07-14.08,8.07-14.82,0-18.86-6.74-18.86-16.17s5.17-18.47,33.21-22.64c.95-.14,1.81.6,1.81,1.57v20.39Z"/>
    <path class="cls-1" d="m999.97,192.14c-16.17-13.47-33.68-9.43-43.11-5.39-6.99,2.99-13.98,8.95-17.13,11.83-.67.61-1.73.13-1.73-.77v-13.18c0-1.65-1.54-2.87-3.15-2.47-7.67,1.9-27.55,6.6-39,7.22-1.29.07-2.31,1.12-2.31,2.42v5.53c0,.83.71,1.48,1.53,1.41,4.03-.37,14.64-.5,14.64,8.23v111.82s1.21,8.46-12.4,9.35c-1.35.09-2.42,1.18-2.42,2.54v3.34c0,1.26,1.02,2.28,2.28,2.28h54.11c1.32,0,2.39-1.07,2.39-2.39v-2.8c0-1.46-1.26-2.62-2.71-2.47-4.8.5-14.3.21-14.3-9.86v-24.15c0-1.3,1.3-2.2,2.52-1.73,5.83,2.21,21.04,6.6,37.9.28,21.56-8.08,32.33-29.64,36.37-43.11s2.69-44.46-13.47-57.93Zm-43.78,92.28c-10.04,0-15.14-3.09-17.38-5.09-.96-.85-1.48-2.08-1.48-3.36v-63.92c0-2.2,1.11-4.27,2.98-5.43,3.38-2.09,10.03-4.94,21.94-5.81,22.23-.09,26.94,20.97,24.92,48.59-2.06,28.22-16.17,35.03-30.99,35.03Z"/>
    <path class="cls-1" d="m1062.31,139.26v133.16s-2.04,12.54,12.2,12.2c1.61-.04,2.91,1.29,2.88,2.89-.01.78-.04,1.61-.08,2.39-.08,1.76-1.53,3.15-3.29,3.15h-50.77c-1.65,0-2.98-1.33-2.98-2.98v-2.97c0-1.43,1.08-2.63,2.51-2.75,4.2-.36,12.21-2.07,12.21-10.02v-114.51s1.22-9.72-11.36-9.54c-1.15.02-2.11-.89-2.11-2.05v-3.17c0-1.48,1.14-2.7,2.61-2.8,6.03-.39,21.45-1.67,35.47-5.08,1.37-.33,2.7.68,2.7,2.1Z"/>
    <path class="cls-1" d="m1179.38,268.44l-1.18-.88c-1.01-.76-2.4-.79-3.43-.06-4.39,3.1-16.9,10.87-32,10.87-18.19,0-31.36-11.27-32.28-41.07-.06-1.85,1.43-3.38,3.27-3.38h61.2c2.57,0,4.69-2.05,4.74-4.62.26-12.7-2.96-47.2-45.47-47.2-52.1,0-57.65,67.7-45.36,89.54,12.12,21.56,32.33,24.25,48.5,24.25,14.95,0,34.51-11.52,42.7-22.85,1.06-1.47.75-3.51-.7-4.6Zm-46.04-74.95c17.48,0,19.42,19.48,19.53,26.86.02,1.54-1.22,2.78-2.75,2.78h-35.36c-1.64,0-2.94-1.4-2.8-3.04.68-7.56,4.11-26.6,21.39-26.6Z"/>
    <path class="cls-1" d="m1234.38,167.89v102.39c0,14.1-11.36,15.1-15.78,14.96-.95-.03-1.73.74-1.73,1.69v5.08c0,.65.53,1.18,1.18,1.18h48.34c.93,0,1.68-.75,1.68-1.68v-4.18c0-1.26-1-2.32-2.26-2.32-16.6-.02-16.6-20.11-16.6-20.11v-89.2c0-.79,1-1.14,1.5-.52l94.49,119.51c.6.76,1.51,1.2,2.47,1.2h11.62c.97,0,1.75-.78,1.75-1.75v-124.89c0-20.89,12.56-20.67,17.18-19.89.88.15,1.68-.53,1.68-1.42v-4.93c0-.84-.68-1.53-1.53-1.53h-47.91c-.97,0-1.76.79-1.76,1.76v4.19c0,.83.71,1.5,1.54,1.44,17.32-1.19,17.32,18.75,17.32,18.75v80.23c0,.72-.91,1.03-1.35.46l-81.16-105.24c-.77-1-1.97-1.59-3.24-1.59h-45.01c-.96,0-1.73.78-1.73,1.73v5.29c0,.99.81,1.78,1.81,1.77,4.8-.09,17.52,1.23,17.52,17.63Z"/>
    <path class="cls-1" d="m1481.42,269.78l-1.18-.88c-1.01-.76-2.4-.79-3.43-.06-4.39,3.1-16.9,10.87-32,10.87-18.19,0-31.36-11.27-32.28-41.07-.06-1.85,1.43-3.38,3.27-3.38h61.2c2.57,0,4.69-2.05,4.74-4.62.26-12.7-2.96-47.2-45.47-47.2-52.1,0-57.65,67.7-45.36,89.54,12.12,21.56,32.33,24.25,48.5,24.25,14.95,0,34.51-11.52,42.7-22.85,1.06-1.47.75-3.51-.7-4.6Zm-46.04-74.95c17.48,0,19.42,19.48,19.53,26.86.02,1.54-1.22,2.78-2.75,2.78h-35.36c-1.64,0-2.94-1.4-2.8-3.04.68-7.56,4.11-26.6,21.39-26.6Z"/>
    <path class="cls-1" d="m1495.74,260.29v22.87c0,1.68.7,3.28,1.95,4.39,3.51,3.12,12.78,8.32,35.55,8.32,32.55,0,43.33-20.21,43.33-32.33s-1.35-25.6-22.9-33.68c-21.56-8.08-35.03-13.47-33.68-24.25s12.12-12.12,18.86-12.12c9.05,0,17.93,3.65,23.42,21.35.51,1.63,2.16,2.63,3.83,2.3l.82-.16c1.7-.34,2.92-1.83,2.92-3.56v-22.5c0-1.71-1.1-3.21-2.73-3.72-9.38-2.94-41.99-11.18-57.9,3.6-18.86,17.51-14.82,40.42,2.69,51.19,15.35,9.45,43.13,13.72,40.67,30.06-.88,5.88-5.05,10.89-10.69,12.8-6.49,2.2-15.17,1.6-23.25-3.79-9.36-6.24-13.1-17.3-14.32-22.02-.34-1.32-1.53-2.23-2.89-2.23h-2.21c-1.92,0-3.48,1.56-3.48,3.48Z"/>
    <path class="cls-5" d="m792.48,371.5l4.05-4.14c1.66-1.7,1.76-4.39.2-6.18-3.82-4.38-12.28-11.41-27.13-11.41-21.56,0-40.42,14.82-40.42,40.42s18.86,40.42,40.42,40.42c14.95,0,23.42-6.93,27.21-11.17,1.49-1.67,1.34-4.22-.31-5.73l-4.61-4.21c-1.67-1.52-4.24-1.45-5.8.19-2.52,2.65-7.34,5.94-15.81,6.11-13.2.26-24.18-10.41-24.68-23.61-.6-15.83,5.89-27.58,19.96-27.58,11.16,0,17.7,3.07,21.91,7.06,1.41,1.34,3.65,1.24,5.01-.15Z"/>
    <path class="cls-5" d="m841,355.04v70.96c0,1.42,1.15,2.58,2.58,2.58h45.7c1.42,0,2.58-1.15,2.58-2.58v-7.91c0-1.42-1.15-2.58-2.58-2.58h-28.19c-1.42,0-2.58-1.15-2.58-2.58v-57.89c0-1.42-1.15-2.58-2.58-2.58h-12.35c-1.42,0-2.58,1.15-2.58,2.58Z"/>
    <path class="cls-5" d="m932.68,355.27v70.5c0,1.55,1.26,2.81,2.81,2.81h46.89c1.55,0,2.81-1.26,2.81-2.81v-7.91c0-1.55-1.26-2.81-2.81-2.81h-30.8c-1.55,0-2.81-1.26-2.81-2.81v-12.51c0-1.55,1.26-2.81,2.81-2.81h26.71c1.55,0,2.81-1.26,2.81-2.81v-7.85c0-1.55-1.26-2.81-2.81-2.81h-26.71c-1.55,0-2.81-1.26-2.81-2.81v-11.9c0-1.55,1.26-2.81,2.81-2.81h30.8c1.55,0,2.81-1.26,2.81-2.81v-7.85c0-1.55-1.26-2.81-2.81-2.81h-46.89c-1.55,0-2.81,1.26-2.81,2.81Z"/>
    <path class="cls-5" d="m1070.78,352.46h-13.86c-1.08,0-2.05.67-2.43,1.68l-26.92,70.92c-.65,1.7.61,3.52,2.43,3.52h10.42c1.11,0,2.1-.71,2.46-1.76l4.98-14.66c.36-1.05,1.35-1.76,2.46-1.76h25.98c1.08,0,2.05.67,2.43,1.68l5.57,14.82c.38,1.01,1.35,1.68,2.43,1.68h11.6c1.83,0,3.08-1.84,2.42-3.54l-27.56-70.92c-.39-1-1.35-1.66-2.42-1.66Zm-18.37,43.67l8.43-23.41c.83-2.29,4.07-2.29,4.89,0l8.43,23.41c.61,1.69-.65,3.48-2.45,3.48h-16.85c-1.8,0-3.06-1.79-2.45-3.48Z"/>
    <path class="cls-5" d="m1143.19,353.66v72.79c0,.66.54,1.2,1.2,1.2h13.42c.66,0,1.2-.54,1.2-1.2v-47.15c0-1.17,1.49-1.65,2.18-.71l35.3,48.56c.23.31.59.5.97.5h13.78c.66,0,1.2-.54,1.2-1.2v-72.79c0-.66-.54-1.2-1.2-1.2h-13.19c-.66,0-1.2.54-1.2,1.2v46.25c0,1.17-1.5,1.65-2.18.7l-34.15-47.65c-.23-.32-.59-.5-.98-.5h-15.15c-.66,0-1.2.54-1.2,1.2Z"/>
    <rect class="cls-5" x="1264.26" y="352.46" width="17.27" height="75.2" rx="2.62" ry="2.62"/>
    <path class="cls-5" d="m1331.48,353.25v73.55c0,.45.37.82.82.82h14.18c.45,0,.82-.37.82-.82v-48.7c0-.8,1.02-1.13,1.49-.48l36.1,49.67c.15.21.4.34.67.34h14.35c.45,0,.82-.37.82-.82v-73.55c0-.45-.37-.82-.82-.82h-13.95c-.45,0-.82.37-.82.82v47.81c0,.8-1.03,1.13-1.49.48l-34.95-48.77c-.15-.22-.4-.34-.67-.34h-15.72c-.45,0-.82.37-.82.82Z"/>
    <path class="cls-5" d="m1500.41,400.96h-12.4c-1.14,0-2.06-.92-2.06-2.06v-8.73c0-1.14.92-2.06,2.06-2.06h27.35c1.14,0,2.06.92,2.06,2.06v28.41c0,.55-.21,1.08-.61,1.46-2.41,2.37-12.07,10.56-30.51,10.56-21.56,0-40.42-13.47-40.42-41.76s24.25-37.72,37.72-37.72,23.48,2.06,32.5,11.78c.76.82.77,2.08-.01,2.87-1.78,1.82-4.94,4.97-6.79,6.8-.78.78-2.02.8-2.84.06-2.9-2.62-10.26-8.05-21.51-8.05-14.82,0-22.92,12.12-22.92,26.27s12.14,26.27,25.61,26.27c9.64,0,13.07-2.07,14.25-3.25.38-.38.57-.9.57-1.43v-9.42c0-1.14-.92-2.06-2.06-2.06Z"/>
  </g>
</svg>