<?xml version="1.0" encoding="UTF-8"?>
<svg id="text_iphone" xmlns="http://www.w3.org/2000/svg" xmlns:xlink="http://www.w3.org/1999/xlink" viewBox="0 0 1946.98 1889.09">
  <defs>
    <style>
      .cls-1 {
        fill: #7f0000;
      }

      .cls-1, .cls-2 {
        stroke: #000;
        stroke-miterlimit: 10;
        stroke-width: .5px;
      }

      .cls-2 {
        fill: url(#_Безымянный_градиент_44);
      }

      .cls-3 {
        fill: url(#_Безымянный_градиент_43);
        opacity: .14;
        stroke-width: 0px;
      }
    </style>
    <radialGradient id="_Безымянный_градиент_44" data-name="Безымянный градиент 44" cx="985.42" cy="941.08" fx="985.42" fy="941.08" r="1692.87" gradientUnits="userSpaceOnUse">
      <stop offset="0" stop-color="#ff9d48"/>
      <stop offset=".08" stop-color="#fa9745"/>
      <stop offset=".18" stop-color="#ec863d"/>
      <stop offset=".29" stop-color="#d66b31"/>
      <stop offset=".41" stop-color="#b84620"/>
      <stop offset=".54" stop-color="#91160a"/>
      <stop offset=".6" stop-color="#7f0000"/>
    </radialGradient>
    <radialGradient id="_Безымянный_градиент_43" data-name="Безымянный градиент 43" cx="955.28" cy="927.32" fx="955.28" fy="927.32" r="535.53" gradientTransform="translate(2159.8 596.18) rotate(124.51) scale(1 .87)" gradientUnits="userSpaceOnUse">
      <stop offset="0" stop-color="#ff9d48"/>
      <stop offset=".03" stop-color="#e67f3a"/>
      <stop offset=".13" stop-color="#9c2410"/>
      <stop offset=".18" stop-color="#7f0000"/>
    </radialGradient>
  </defs>
  <path class="cls-1" d="m1365.89,475.49c.24,1.64,2.28,2.25,3.34.97,17.8-21.58,92.43-135.34,148.95-340.11,9.8-35.49,16.07-71.82,20.44-108.38,1.87-15.63,8.24-31.37,30.46-26.96,45.44,9.01,16.67,88.66,16.67,88.66,0,0-99.68,311.39-215.05,423.77-.67.66-.08,1.8.84,1.62,89.99-18,273.38,42.62,315.48,75.94,0,0,87.6,10.97,106.34,40.08,3.33,5.17,12.2,11.84,20.12,27.26,1.91,3.71,26.66,8.01,31.07,10.28,15.91,8.18-7.86,12.61-25.03,17.66-50.04,14.73-67.97,11.64-118.85,42.84-45.21,27.73,85.99,111.69,103.88,168.52,3.53,11.21,8.54,21.89,15.17,31.6,24.12,35.31,77.71,123.08,88.13,178.53,8.95,47.61,27.41,68.61,38.31,96.31.63,1.61,2.16,12.3-5.53,8.9-12.5-5.52-67.43-11.06-104.49-65.31-38.3-26.18-144.42-68.45-163.84-10.99-19.41,57.46-29.93,64.19-19.01,203.43,8.37,106.67-.61,175.86-9.46,188.1-1.99,2.75-5.5,9.57-14.41.37-10.93-11.27-51.46-70.96-70.83-84.38-3.87-2.68-9.2-1.45-11.44,2.69-15.12,28-106.81,368.91-111.64,407.84,0,0-35.05-111.07-56.39-166.18s-67.56-153.89-122.32-174.18c-3.07-1.14-6.34-3.69-6.79-6.93-4.41-31.81-23.56-170.64-86.31-175.26-68.61-5.05-104.54,105.68-104.54,105.68,0,0-70.35,239.02-143.24,275.87-1.63.82-4.18.84-6.97-.08-4.62-1.52-8.21-5.18-9.9-9.73l-32.39-77.18c-3.38-5.08-7.64-3.78-12.97-.82-36.06,20.05-142.4,65.23-180.06,115.46-24.62,32.85-108.27,135.32-148.14,147.35-1.71.51-3.44-1.01-3.01-2.74,54.84-223.45,71.17-363.36,73.72-388.19,1.3-12.62-6.83-21.51-10.31-22.58-1.83-.56-3.9-5.36-3.36-7.19,4.14-13.95,33.56-71.21-21.13-70.46-55.52.76-97.52,16.41-104.15,8.71-1.21-1.4-3.49-4-2.21-13.25,3.48-25.11,44.61-142.69,149.23-261.65,64.07-72.85,98.26-127.82,90.94-157.75-5.44-22.29-24.91-38.36-47.81-39.73-20.31-1.22-68.94.42-111.61,11.88-28.65,7.69-110.59,38.35-120.89,37.09-2.91-.36-10.72-1.31-14.62-11.37-6.77-17.48-3.46-52.39-2.58-91,.08-3.42-1.84-6.58-4.91-8.07-21.74-10.53-89.11-36.35-161.61-31.03-36.33,2.67-206.43,3.72-226.95,3.32-2.73-.05-5.51-4.19-3.04-6.61,2.47-2.42,403.5-299.94,403.5-299.94,2.28-1.67,2.45-5.04.28-6.85-14.9-12.42-46.94-29.5-76.82-47.61-4.34-2.63-4.64-10.98-2.96-13.93,12.72-22.44,64.66-62.89,208.5-58.36,94.56,2.97,154.06-16.05,176.01-29.23,13.44-8.07,18.73-24.89,12.25-39.17-21.88-48.21-49.09-136.32-143.62-197.01-3.2-2.05-13.22-14.04-9.81-15.73,17.96-8.9,85.98-23.14,244.51,18.74,179.97,47.54,272.98,92.66,284.5,100.26,2,1.32,4.51,1.51,6.67.48,14.27-6.82,43.52-47.42,16.34-134.08-3.24-10.32-18.11-34.41,19.71-10.82,76.68,47.84,193.65,154.45,225.64,370.64Z"/>
  <path class="cls-2" d="m1353.01,491.61c.21,1.65,2.26,2.28,3.32,1,17.76-21.52,115.86-146.77,172.4-351.61,9.8-35.49,16.07-71.82,20.44-108.38,1.87-15.63,8.24-31.37,30.46-26.96,45.44,9.01,16.67,88.66,16.67,88.66,0,0-94.46,312.16-220.95,414.32-.78.63-.22,1.87.76,1.69,23.52-4.37,151.11-22.25,321.73,64.47,0,0,110.55,26.69,118.88,65.02,1.31,6.01,3.38,11.89,7.02,16.85,2.47,3.36,5.75,6.7,10.05,9.14,1.27.72.97,2.61-.46,2.86-22.13,3.9-113.07,21.13-137.65,44.66-25.94,24.84,108,128.7,126,185.56,3.45,10.89,8.12,21.34,14.57,30.76,23.88,34.87,74.2,113.3,84.72,169.24,8.85,47.06,10.1,60.33,21.88,97.78.41,1.31-.85,2.53-2.14,2.05-12.44-4.66-53.64-9.96-90.01-58.64-38.3-26.18-152.36-81.92-171.77-24.46-19.41,57.46-22,98.81-11.07,238.05,8.36,106.54-9.52,145.23-18.37,157.53-2,2.78-6.12,2.78-8.08-.03-9-12.9-33.64-46.77-53.02-60.14-3.84-2.65-9.13-1.34-11.35,2.77-15.13,28.03-72.51,142.38-135.21,371.58-.53,1.95-3.3,1.98-3.84.03-12.41-45.44-83.99-294.82-166.8-319.59-4.52-1.35-7.94-5.06-8.59-9.74-4.41-31.81-23.88-146.56-75.76-152.41-60.27-6.8-101.89,81.03-101.89,81.03,0,0-59.81,230.68-157.2,281.76-3.24,1.7-7.24.58-9.27-2.46l-35.78-74.71c-3.38-5.08-12.02.92-17.35,3.89-36.06,20.05-150.78,87.34-188.44,137.58-24.64,32.87-88.35,94.5-128.21,106.41-1.71.51-3.33-1.03-2.91-2.77,9.67-40.21,92.13-388.49,51.86-405.99-1.75-.76-2.54-2.82-2-4.65,4.14-13.95,13.14-59.41-48.72-50.71-52.23,7.34-71.23,2.83-77.8-.32-1.98-.95-2.93-3.21-2.16-5.26,8.13-21.64,61.54-157.14,167.22-277.29,115.23-131.01,38.38-172.39,38.38-172.39,0,0-42.98-25.01-135.73,5.09-70.28,22.8-100.05,22.96-110.35,21.7-2.91-.36-5.31-2.37-6.27-5.13-3.17-9.11-9.21-33.12-3.07-72.22.58-3.68-1.31-7.31-4.65-8.94-21.39-10.43-100.37-45.51-189.37-42.76-90.58,2.8-173.24-7.58-193.57-10.38-1.75-.24-2.3-2.48-.87-3.53l384.44-281.52c2.28-1.67,2.39-5.04.22-6.85-14.9-12.42-62.57-48.39-81.6-66.5-2.46-2.34-4.12-11.98-1.24-13.77,17.97-11.21,83.28-43.98,227.11-39.46,94.56,2.97,140.19-10.87,162.13-24.05,13.44-8.07,18.73-24.89,12.25-39.17-21.88-48.21-85.63-180.5-142.34-217.99-3.17-2.1-2.14-7,1.59-7.75,21.15-4.23,82.9-7.21,241.43,34.66,179.97,47.54,231.34,75.94,242.86,83.53,2,1.32,4.51,1.51,6.67.48,14.27-6.82,62.59-38.26,39.21-143.81-.74-3.35,2.87-5.97,5.8-4.17,37.26,22.95,195.48,133.72,225.78,376.41Z"/>
  <path class="cls-3" d="m1344.09,528.59c2.99-1.57,6.49.92,5.94,4.25-3.42,20.6-10.23,76.91.16,156.53,13.04,99.99,9.28,156.53,60.65,223.13,51.37,66.6,104.14,146.75,130.53,157.04,0,0-42.75,3.72-149.46-141.4,0,0,16.72,242.03,67.53,549.03,0,0-29.64-75-35.93-116.12-5.97-39.01-73.38-438.39-80.52-484.27-.36-2.35-.89-4.64-1.58-6.91-2.37-7.83-8.11-29.27-7.71-51.6.09-4.82-.25-9.64-1.17-14.38l-23.24-155.95c-.38-2.52-3.72-3.15-4.99-.95l-237.17,411.86s-268.85,474.14-338.48,509.39c0,0,173.91-245.93,322.84-548.17,0,0-219.65,134.24-282.02,107.12,0,0,206.79-86.36,304-166.22l83.22-135.93s14.5-45.32,31.33-61.43c16.83-16.11,85.79-137.57,85.79-137.57,0,0,24.78-51.85-25.21-45.33-50,6.52-314.94,66.69-314.94,66.69,0,0-68.22,9.08-136.23,86.62-58.08,66.21-90.25,102.79-98.41,112.06-.24.27-.67-.03-.49-.34,9.95-16.79,64.55-107.93,117.61-175.95,0,0-234.56,22.8-446.95,94.67,0,0,101.28-67.92,483.6-131.81,8.49-1.42,16.63-4.44,23.96-8.94,11.41-7.01,31.46-17.55,53.65-21.16,34.34-5.59,50.23,2.36,73.59-3.48,20.32-5.07,165.25-37.49,202.65-45.85,3.41-.76,4.31-5.2,1.47-7.24l-359.59-259.55,393.32,235.41s48.59,34.98,102.24,6.77Z"/>
</svg>