<?xml version="1.0" encoding="utf-8"?>
<!-- Generator: Adobe Illustrator 28.0.0, SVG Export Plug-In . SVG Version: 6.00 Build 0)  -->
<svg version="1.1" id="Слой_1" xmlns="http://www.w3.org/2000/svg" xmlns:xlink="http://www.w3.org/1999/xlink" x="0px" y="0px"
	 viewBox="0 0 49 49" style="enable-background:new 0 0 49 49;" xml:space="preserve">
<style type="text/css">
	.st0{fill:none;stroke:#000000;stroke-width:3;stroke-linecap:round;stroke-linejoin:round;stroke-miterlimit:133.3333;}
</style>
<path class="st0" d="M28.3,11.2c2.4,0.5,4.5,1.6,6.2,3.3c1.7,1.7,2.9,3.9,3.3,6.2 M28.3,1.5c4.9,0.5,9.5,2.7,13,6.2
	c3.5,3.5,5.7,8.1,6.3,13 M39,47.5C18.3,47.5,1.5,30.7,1.5,10c0-0.9,0-1.9,0.1-2.8C1.7,6.1,1.7,5.6,2,5.1c0.2-0.4,0.6-0.8,1-1
	c0.5-0.2,1.1-0.2,2.2-0.2h6.8c1,0,1.5,0,1.9,0.2c0.4,0.1,0.7,0.4,1,0.7c0.3,0.3,0.5,0.8,0.8,1.7l2.8,7.8c0.4,1.1,0.6,1.6,0.6,2.1
	c0,0.4-0.2,0.9-0.4,1.2c-0.3,0.4-0.8,0.7-1.8,1.3l-3.3,2c2.9,6.4,8.1,11.6,14.5,14.5l2-3.3c0.6-1,0.9-1.5,1.3-1.8
	c0.4-0.3,0.8-0.4,1.2-0.4c0.5,0,1,0.2,2.1,0.6l7.8,2.8c0.9,0.3,1.4,0.5,1.7,0.8c0.3,0.3,0.5,0.6,0.7,1c0.2,0.4,0.2,0.9,0.2,1.9v6.8
	c0,1.2,0,1.7-0.2,2.2c-0.2,0.4-0.6,0.8-1,1c-0.5,0.3-1,0.3-2.1,0.4C40.9,47.5,40,47.5,39,47.5z"/>
</svg>
