<?xml version="1.0" encoding="UTF-8"?>
<svg xmlns="http://www.w3.org/2000/svg" viewBox="0 0 1724.21 2140.33">
  <defs>
    <style>
      .cls-1 {
        fill: #666;
        opacity: .21;
      }

      .cls-1, .cls-2, .cls-3, .cls-4, .cls-5 {
        stroke-width: 0px;
      }

      .cls-2 {
        fill: #2a2028;
      }

      .cls-6 {
        opacity: .2;
      }

      .cls-4, .cls-7 {
        opacity: .3;
      }

      .cls-8 {
        fill: #811302;
        stroke-width: .5px;
      }

      .cls-8, .cls-7 {
        stroke: #000;
        stroke-miterlimit: 10;
      }

      .cls-5 {
        fill: #333;
      }

      .cls-7 {
        fill: none;
        stroke-width: 10px;
      }
    </style>
  </defs>
  <g id="maple">
    <path class="cls-8" d="m1723.9,1364.01s-82.87-106.54-315.12-131.79c0,0,97.54,119.25,183.69,187.08l-31.35,4.05s66.04,135.96,92.78,165.67c0,0-100.18-54.16-145.5-68.83,7.73,59.8,20.74,172.61,20.74,172.61,0,0-14.13-11.6-38.74-18.68,3.82,29.51,22.51,161.88,5.28,230.16,0,0-80.17-253.64-120.7-121.27,0,0-39.21-291.04-127.28-31.71,0,0-10.87-364.98-117.17-350.44-106.3,14.53,25.3,287.31-34.9,359.05,0,0-6.67-39.41-31.96-45.61,0,0,15.35,161.47-18.25,231.35,0,0-56.73-139.53-125.91-167.7,0,0-77.38,122.13-93.14,207.87,0,0-13.32-48.02-43.28-59.94,0,0-42.68,60.79-50.03,113.86,0,0-16.8-44.42-37.97-43.26,0,0-50.73,108.42-168.6,143.4,0,0,127.53-161.78,33.65-173.33,0,0,103.87-198.2-88.01-69.95,0,0,267.13-340.12-83.77-238.69,0,0,178.79-143.93,61.36-166.65,0,0,276.32-165.23,207.18-229.72-69.14-64.49-180.05,146.46-290.55,152.85,0,0,63.96-195.41-182.82-3.21,0,0,49.73-116.19-182.04-3.31,0,0,275.97-247.3,83.74-225.6,0,0,318.15-128.78,28.93-209.83,0,0,414.82-77.32,472.28-109.23,0,0,42.81-29.22-40.93-53.93-215.05-44.84-233.54-169.58-380.95-137.09,0,0,58.46-48.62,143.22-58.79,67.57-8.74,58.44-54.93,58.44-54.93,0,0,67.25,31.57,153.18-.07-7.97-25.03-16.03-68.99-56.27-99.32,0,0,244.12,74.24,308.15,172.56,0,0-41.25-245.76-103.2-309.61,0,0,89.93,42.07,141.78,107.22,0,0,17.71-15.71,17.73-33.88,0,0,91.9,118.4,102.46,157.31,0,0,55.25-73.47,14.88-178.01,0,0,112.39,93.65,124.99,270.47,0,0,34.54-32.1,32.38-61.04,0,0,30.86,153.14,24.06,222.72,0,0,51.95-75.86,496.41-520.31,4-4,5-14,11-13s8.43,8.47,6,11c-26,27-18,13-156,156-62.52,64.79-279.56,287.47-343,377,0,0,300.4-79.82,355.32-45.86,0,0-44.16,30.98-49.87,60.14,0,0,193.07,15.31,231.07,113.83,0,0-179.32-49.46-251.33,10.39,0,0,133.37,48.29,192.9,136.14,34.26,50.57,100.24,207.34,105.03,271.87Z"/>
  </g>
  <g id="maple_decor">
    <g class="cls-6">
      <path class="cls-3" d="m546.27,2126c28.12-12.21,46.66-38.45,61.27-64.35,28.78-53.14,46.08-111.51,63.5-169.13,25.4-86.92,47.93-174.63,73.21-261.61,66.41-232.12,152.17-460.62,278.8-667.14,31.55-51.62,65.46-101.82,101.73-150.29,1.65-2.21,4.79-2.66,7-1.01,2.21,1.65,2.66,4.79,1.01,7-36.42,47.96-70.52,97.69-102.29,148.88-127.7,205.09-214.78,432.46-282.65,663.61-25.87,86.76-49.01,174.35-75.01,261.09-17.83,57.56-35.56,115.89-64.75,168.9-14.82,25.85-33.58,52.02-61.82,64.04h0Z"/>
    </g>
    <g class="cls-6">
      <path class="cls-3" d="m1126.95,821.43c-62.55-35.5-120.22-79.21-173.45-127.44-70.47-64.29-132.69-138.95-177.76-223.27,0,0-8.34-15.84-8.34-15.84l-7.72-16.15-3.85-8.07-3.52-8.22-7.05-16.44,7.33,16.31,3.66,8.15,3.99,8,7.99,15.99,8.6,15.67c34.65,62.32,79.19,119.32,129.04,170.18,62.49,63.44,133.34,118.85,210.26,163.72,5.14,2.97,10.39,5.88,15.53,8.59,2.44,1.28,3.39,4.31,2.1,6.75-1.3,2.47-4.38,3.4-6.83,2.06h0Z"/>
    </g>
    <g class="cls-6">
      <path class="cls-3" d="m1128.81,821.98c-37.6-4.11-74.24-13.92-110.58-23.82-243.17-67.8-511.55-176.56-766.95-148.16,74.36-10.58,150.04-6.39,224.28,3.28,148.84,20.13,293.28,63.32,436.95,105.67,62.83,18.13,125.4,37.81,189.78,49.4,9.15,1.54,18.32,2.86,27.47,3.68,6.27.66,6.05,10.28-.95,9.96h0Z"/>
    </g>
    <g class="cls-6">
      <path class="cls-3" d="m1132.26,812.99c52.26,39.2,120.44,44.73,183.48,50.85,107.42,8.07,218.53,18.61,319.53,58.16-81.84-29.68-168.48-42.11-255-47.69-38.57-2.71-92.27-5.21-130.09-10.36-21.71-2.9-43.43-6.96-64.36-13.6-21.05-6.6-41.46-16.17-59.54-29.35-2.23-1.63-2.72-4.75-1.1-6.99,1.65-2.26,4.85-2.73,7.07-1.03h0Z"/>
    </g>
    <g class="cls-6">
      <path class="cls-3" d="m1134.13,815.81c20.9,94.28,85.89,161.1,167.01,208.97,79.46,48.02,166.18,83.86,242.75,136.87,51.21,34.93,97.48,77.67,133.38,128.35-36.53-50.13-83.22-92.11-134.78-126.28-151.33-103.38-369.28-142.45-418.07-345.53-1.37-6.33,7.8-8.97,9.71-2.38h0Z"/>
    </g>
    <g class="cls-6">
      <path class="cls-3" d="m64.27,1362c122.93-102.3,263.88-184.17,416.25-233.67,146.99-47.49,306.69-68.44,460.25-46.31,5.01.81,9.91,1.66,15.04,2.73,2.7.57,4.43,3.22,3.86,5.92-.58,2.76-3.34,4.5-6.08,3.83-4.64-1.03-9.59-1.94-14.43-2.77-161.56-24.95-331.47-1.72-485.54,50.68-141.77,48.64-273.3,125.05-389.34,219.59h0Z"/>
    </g>
    <g class="cls-6">
      <path class="cls-3" d="m955.64,1085.19c17.29,5.65,33.73,13.62,49.7,22.22,31.48,16.93,61.24,38.04,89.1,60.36,5.24,4.49,15.31,12.75,20.52,17.37,6.32,5.77,13.69,12.21,19.89,18.07,5.38,5.18,14.1,13.64,19.28,18.7,10.94,11.27,23.73,24.54,34.07,36.39,1.88,2.06,5.91,6.61,7.69,8.56.77.98,20.79,24.77,22.15,26.44,6.74,8.71,21.93,27.76,28,36.45,5.14,7.3,13,17.56,17.92,24.84,6.19,9.29,15.31,22.46,21.4,31.74,2.7,4.29,17.36,27.64,20.36,32.41,7.29,12.07,15.99,27.43,23.19,39.63,11.3,20.75,25.31,46.52,35.53,67.73,0,0,6.83,13.68,6.83,13.68l1.71,3.42c1.63,3.48,3.32,7.22,4.81,10.41,7.2,15.61,18.59,39.94,25.01,55.81,0,0,11.94,28.15,11.94,28.15,1.03,2.33,1.89,4.73,2.83,7.1,4.05,10.33,9.82,25.27,13.87,35.61,6.5,16.19,14.89,41.07,20.85,57.46,6.01,16.47,13.61,41.42,19.14,58.05,4.56,13.3,17.77,59.74,21.85,73.2-1.79-5.85-18.69-61.58-20.16-65.72-4.15-12.43-12.72-37.84-17.01-50.68-6.78-19.11-16.41-45.37-23.72-64.49-5.22-13-11.84-29.52-17.05-42.51-6.72-16.28-17.29-40.01-24.32-56.01-5.31-11.21-15.95-33.71-21.23-44.83-7.42-14.38-15.22-29.83-22.64-44.12-5.04-9.14-17.32-31.28-22.17-40.03-3.93-6.55-11.71-19.65-15.63-26.19-6.98-12.2-20.89-33.14-28.48-45.12-9.58-13.92-20.46-30.18-30.62-43.67-5.41-7.05-12.75-17.55-18.3-24.36,0,0-18.98-23.82-18.98-23.82-1.06-1.16-21.58-25.32-22.26-26.03-4.85-5.32-13.13-14.29-18-19.63-7.08-7.74-16.56-16.96-23.87-24.52-5.36-5.18-13.93-13.21-19.29-18.33-6.2-5.76-13.57-12.02-19.87-17.68-39.25-33.39-82.17-63.91-129.07-85.53-9.04-4.14-18.29-8-27.75-10.94-2.66-.75-4.2-3.52-3.45-6.17.76-2.69,3.58-4.23,6.25-3.43h0Z"/>
    </g>
    <g class="cls-6">
      <path class="cls-3" d="m820.22,1402.15c11.56,4.69,21.5,12.38,30.96,20.29,25.19,21.87,45.14,49.2,62.56,77.46,32.65,54.28,55.87,113.6,74.77,173.87,24.88,80.36,41.77,163.2,54.76,246.22-20-118.14-46.82-236.42-95.7-346.27-18.7-40.69-40.39-80.47-68.97-115.12-15.14-18.1-32.09-35.34-52.67-47.12-2.45-1.4-5.24-2.76-7.78-3.71-3.53-1.3-1.91-6.91,2.07-5.63h0Z"/>
    </g>
    <g class="cls-6">
      <path class="cls-3" d="m819.27,1408c-39.43-.26-73.19,9.59-107.67,28.44-33.14,18.34-63.52,41.36-93.83,64.05-60.48,45.99-121.66,91.25-185.5,132.51,63.3-42.11,123.8-88.11,183.68-134.9,45.31-34.3,90.72-72.02,146.29-88.14,8.05-2.41,16.38-4.02,24.66-5.45,2.43-.33,8.28-1.04,10.75-1.36,2.24-.13,8.55-.71,10.8-.83,2.52-.1,8.28-.23,10.82-.32,4.03.02,4.13,5.95,0,6h0Z"/>
    </g>
    <g class="cls-6">
      <path class="cls-3" d="m875.47,753.99c-76.83,9.16-162.24,29.57-228.44,70.62-9.67,6.2-18.99,12.95-27.76,20.39,8.66-7.57,17.89-14.46,27.49-20.81,58.4-37.32,126.49-56.38,194.09-69.01,11.36-2,22.71-3.82,34.23-5.17,2.56-.24,3.17,3.63.4,3.98h0Z"/>
    </g>
    <g class="cls-6">
      <path class="cls-3" d="m1014.41,742.72c-4-10.89-6.01-22.63-5.78-34.22.34-22.93,6.53-45.31,9.33-67.94,4.78-33.84,2.49-68.39-5.82-101.51-5.59-22.08-13.27-43.63-22.36-64.54,23.76,51.75,38.37,109.24,30.66,166.37-1.94,17.03-5.47,33.78-7.36,50.76-.61,5.5-1.01,11.34-.95,16.88-.06,6.98.84,14.01,2.3,20.81.5,1.98,1.11,4.08,1.64,6.06.51,1.45,1.58,4.48,2.08,5.92,1,2.5-2.76,4.04-3.73,1.43h0Z"/>
    </g>
    <g class="cls-6">
      <path class="cls-3" d="m839.67,567.03c13.3-9.91,15.97-30.85,15.99-46.43-.45-29.26-8.99-57.75-18.89-85.1,8.69,21.78,16.12,44.18,19.73,67.44,2.42,17.51,3.21,36.06-3.74,52.74-2.49,5.64-5.9,11.27-11.11,14.83-2.34,1.36-4.35-2.15-1.98-3.48h0Z"/>
    </g>
    <g class="cls-6">
      <path class="cls-3" d="m1309.53,865.09c23.92-19.91,49.81-37.33,77-52.4,20.38-11.22,41.67-20.91,63.83-28.05,7.38-2.39,14.87-4.38,22.41-6.14-7.5,1.93-14.94,4.08-22.26,6.62-43.83,15.33-83.93,39.95-120.53,68.26-6.08,4.75-12.11,9.66-17.84,14.74-1.97,1.69-4.64-1.21-2.62-3.02h0Z"/>
    </g>
    <g class="cls-6">
      <path class="cls-3" d="m682.32,697.41c-3.23-42.78-26.39-85.45-54.44-117.21-29.21-33.11-66.3-58.67-105.8-78.07,37.4,17.64,72.72,40.89,101.63,70.65,28.78,29.95,51.42,66.9,60.2,107.81,1.14,5.5,2.06,10.94,2.41,16.72.07,1.1-.77,2.05-1.88,2.12-1.15.07-2.13-.86-2.12-2.02h0Z"/>
    </g>
    <g class="cls-6">
      <path class="cls-3" d="m913.02,653.63c-18.94-4.17-38.46,1.94-57.69,2.01-17.11.39-34.29-2.97-50.23-9.04,0,0-6.83-2.61-6.83-2.61,4.09,1.36,9.77,3.5,13.88,4.53,13.89,4.06,28.68,5.94,43.11,5.12,15.16-.64,30.22-4.81,45.48-5.04,1.41-.07,4.22.15,5.62.19,2.25.06,5.23.66,7.47.92,2.74.47,1.96,4.56-.81,3.92h0Z"/>
    </g>
    <g class="cls-6">
      <path class="cls-3" d="m1048.71,764.5c26.29-2.51,42.64-26.84,48.21-50.78,6.14-24.9,4.88-50.94,1.85-76.22,2.84,18.99,4.47,38.37,2.94,57.57-1.6,19.23-6.48,39.06-18.99,54.26-8.43,10.2-20.55,17.83-33.9,19.17-2.73.09-2.88-3.92-.12-4h0Z"/>
    </g>
    <g class="cls-6">
      <path class="cls-3" d="m1224.89,970.06c21.91,5.28,44.73,4.26,66.45-1.59,21.99-5.76,43.79-13.09,66.44-16.05,15.07-2.15,30.31-2.79,45.5-2.33-15.16.05-30.33,1.18-45.26,3.81-14.94,2.56-29.5,6.73-43.91,11.39-21.74,7.15-44.17,14.29-67.39,13.27-7.75-.24-15.46-1.17-23.05-2.62-3.9-.86-2.78-6.63,1.23-5.87h0Z"/>
    </g>
    <g class="cls-6">
      <path class="cls-3" d="m643.9,1476.45c-15.35-11.91-39.69-14.14-58.62-13.81-34.81.9-68.83,10.29-101.51,21.86,26.03-9.97,52.84-18.36,80.52-22.34,24.18-3.29,50.01-4.11,72.88,5.71,2.47,1.11,4.89,2.4,7.15,3.91,1.39.98,4.18,2.53,2.49,4.59-.76.87-2.11.9-2.92.08h0Z"/>
    </g>
    <g class="cls-6">
      <path class="cls-3" d="m715.21,1745.06c10.94,4.49,18.45,14.63,23.94,24.69,9.81,19.1,13.24,40.82,14.42,62.03,2.47,58.17-10.15,115.77-24.79,171.72,13.99-56,25.96-113.61,22.87-171.61-1.7-27.52-9.27-68.88-35.57-83.23-.62-.29-1.28-.59-1.82-.76-1.84-.62-.96-3.46.96-2.84h0Z"/>
    </g>
    <g class="cls-6">
      <path class="cls-3" d="m950.72,1567.05c59.15,16.52,116.39,55.97,138.22,115.28,5.6,14.78,8.55,30.45,9.84,46.17-1.42-14.5-4.32-28.81-9.29-42.5-19.89-55.51-71.36-93.17-125.86-111.1-4.58-1.49-9.25-2.9-13.85-3.97-2.44-.57-1.8-4.46.94-3.89h0Z"/>
    </g>
    <g class="cls-6">
      <path class="cls-3" d="m1404.74,1615.36c-5.8,7.47-9.2,16.83-12.32,25.7-3.86,11.75-6.72,24.39-8.86,36.58-3.83,21.72-5.7,44.79-6.79,66.86.33-13.35.78-28.89,2.01-42.04,1.38-16.66,3.62-33.76,7.44-50.05,2.37-10.29,5.49-20.66,9.93-30.26,1.64-3.28,3.3-6.63,5.64-9.5,1.8-1.98,4.79.71,2.94,2.71h0Z"/>
    </g>
    <g class="cls-6">
      <path class="cls-3" d="m1402.33,1611.84c22.26-9.9,48.81-4.23,68.32,9.11,5.41,3.57,10.73,8.05,15.47,12.49,12.14,11.72,22.14,25.56,30.65,40.06-8.55-13.6-18.29-26.54-30.04-37.51-17.53-16.73-41.74-28.8-66.39-25.28-5.55.75-11.21,2.22-16.21,4.7-2.36,1.18-4.2-2.33-1.8-3.57h0Z"/>
    </g>
    <g class="cls-6">
      <path class="cls-3" d="m1308.34,1425.82c-10,20.49-16.92,42.84-23.24,64.72-13.62,49.8-21.87,101.77-26.55,153.17-1.26,11.28-3.06,40.2-3.77,51.8.55-11.82,1.93-40.56,3.02-51.86.85-13.18,2.74-29.93,4.11-43.11,1.57-12.32,3.99-30.59,6.11-42.89,5.38-32.76,12.55-65.39,22.67-97.06,4.13-12.42,8.36-24.66,14.11-36.62.48-1,1.67-1.42,2.67-.94,1.05.5,1.45,1.79.88,2.8h0Z"/>
    </g>
    <g class="cls-6">
      <path class="cls-3" d="m1310.02,1422.27c41.71-15.55,92.4-9.11,133.41,5.84,61.89,22.54,114.48,65.04,159.34,112.39-43.18-43.97-92.95-83.22-150.86-105.55-31.76-12.19-66.18-18.77-100.19-15.94-13.34,1.26-26.79,3.6-39.2,8.72-3.63,1.66-6.22-3.7-2.5-5.45h0Z"/>
    </g>
    <g class="cls-6">
      <path class="cls-3" d="m1435.28,1426.92c15.33-24.9,46.78-34.45,74.65-31.71,16.83,1.34,33.22,6.09,48.84,12.28-15.73-5.83-32.14-10.2-48.92-11.16-27.1-2.05-57.49,7.63-71.91,31.97-.91,1.82-3.64.45-2.66-1.38h0Z"/>
    </g>
    <g class="cls-6">
      <path class="cls-3" d="m252.18,1230.97c8.07,27.96,1.33,59.65-9.3,86.06-10.46,25.29-25.66,48.47-43.1,69.48,16.46-20.6,30.85-43.09,40.75-67.58,5.94-14.6,10.16-29.98,11.87-45.65,1.35-13.73,1.23-28.02-3.03-41.24-.74-1.84,2.07-3.02,2.8-1.07h0Z"/>
    </g>
    <g class="cls-6">
      <path class="cls-3" d="m248.83,1231.41c-5.71-17.21-18.37-31.77-33.46-41.61-26.03-16.74-58.43-19.46-88.6-16.29,24.34-3.02,49.77-2.35,72.93,6.52,20.36,7.64,38.23,22.41,48.29,41.84,1.44,2.81,2.71,5.61,3.72,8.73.26.79-.18,1.63-.96,1.89-.83.27-1.72-.23-1.92-1.08h0Z"/>
    </g>
    <g class="cls-6">
      <path class="cls-3" d="m503.15,1125.16c1.65,6.25,2.61,13,3.41,19.36,7.05,62.83-12.4,126.8-48.2,178.29-19.17,27.65-42.72,52.3-68.59,73.69,24.24-20.84,46.18-44.49,64.28-70.82,32.44-47.02,51.28-104.24,48.61-161.57-.63-12.45-2.05-25.24-5.27-37.27-1.14-3.76,4.53-5.7,5.76-1.68h0Z"/>
    </g>
    <g class="cls-6">
      <path class="cls-3" d="m570.27,1104.05c-.77-8.6-4.65-16.89-9.13-24.19-14.05-22.08-36.56-37.54-59.42-49.52-2.02-1.13-7.13-3.46-9.26-4.51-1.74-.8-4.47-2.19-6.24-2.88-14.33-6.28-30.33-11.92-45.31-16.42-86.6-24.84-177.45-29.9-267.14-31.03,87.58-.07,176.29,3.55,261.44,25.74,6.31,1.56,13.83,3.88,20.03,5.81,11.04,3.34,23.69,8.2,34.31,12.6,3.58,1.62,9.08,4.19,12.68,5.83.97.5,3.65,1.9,4.65,2.42,10.32,5.3,20.52,11.42,29.71,18.48.82.65,3.37,2.55,4.2,3.2,1.04.86,5.58,4.84,6.67,5.76,12.04,11.23,22.95,24.96,27.47,41.1.68,2.54,1.18,4.75,1.35,7.51.09,1.65-1.18,3.07-2.84,3.15-1.74.1-3.19-1.32-3.16-3.06h0Z"/>
    </g>
    <g class="cls-6">
      <path class="cls-3" d="m713.16,1748c-41.26.3-84.56,20.49-118.87,42.34-33.82,21.93-64.11,49.02-91.35,78.67,25.94-29.13,54.8-56.03,87.06-78.07,34.47-23.29,73.46-42.48,115.34-46.65,2.66-.21,5.24-.36,8.06-.28,1.1.03,1.97.95,1.95,2.05-.03,1.15-1.03,2.04-2.18,1.94h0Z"/>
    </g>
    <g class="cls-6">
      <path class="cls-3" d="m754.59,1612.49c48.91,48.13,76.93,117.23,84.54,184.73,6.11,53.13-.03,107.29-13.85,158.78,12.77-49.75,18.35-101.74,12.79-152.91-6.66-62.17-30.13-123.21-70.54-171.25-4.92-5.76-10.13-11.41-15.64-16.4-.82-.74-.88-2.01-.14-2.82.75-.82,2.03-.88,2.84-.12h0Z"/>
    </g>
    <g class="cls-6">
      <path class="cls-3" d="m679.09,1872.21c-6.08,10.24-16.81,16.33-26.61,22.4-9.89,5.88-19.93,11.41-29.57,17.58-19.35,12.2-37.19,27.28-50.13,46.3,12.56-19.37,30.16-34.89,49.31-47.56,9.55-6.42,19.51-12.19,29.22-18.25,7.18-4.57,14.42-9.17,20.29-15.31,1.89-2.04,3.59-4.23,4.87-6.62.96-1.71,3.58-.33,2.62,1.46h0Z"/>
    </g>
    <g class="cls-6">
      <path class="cls-3" d="m674.13,1458.07c4.14,25.84-3.76,55.32-12.77,79.47-16.22,41.75-41.41,79.4-69.58,113.96,22.03-28,41.89-57.92,57.02-90.21,11.09-24.1,19.89-49.7,22.25-76.23.7-8.59.89-17.59-.8-26.03-.68-2.61,3.23-3.65,3.88-.96h0Z"/>
    </g>
    <g class="cls-6">
      <path class="cls-3" d="m1135.95,1208.35c-25.49,55.11-30.64,119.24-16.43,178.15-4.08-14.73-6.94-29.81-8.6-45.05-3.14-30.56-1.29-61.62,5.46-91.63,2.53-11.28,5.73-22.45,9.75-33.31,1.36-3.65,2.76-7.19,4.46-10.85.7-1.5,2.48-2.16,3.98-1.46,1.57.72,2.2,2.64,1.38,4.16h0Z"/>
    </g>
    <g class="cls-6">
      <path class="cls-3" d="m1132.8,1203.38c56.03-27.35,122.45-34.38,182.72-18.2,23.48,6.26,46,16.25,66.75,28.74-21.04-12.01-43.65-21.41-67.17-27.1-39.04-9.64-80.43-9.2-119.49-.06-20.69,4.9-41.11,11.83-59.87,21.85-3.46,1.96-6.53-3.17-2.94-5.23h0Z"/>
    </g>
    <g class="cls-6">
      <path class="cls-3" d="m962.55,1603.78c-23.86,16.22-39.44,42.83-46.4,70.49-7.03,28.21-5.49,57.97.62,86.23-4.15-17.63-6.48-35.91-6.05-54.07.54-36.4,14.05-73.64,41.5-98.34,2.76-2.47,5.57-4.77,8.78-6.88.69-.45,1.62-.26,2.08.43.48.73.23,1.71-.52,2.14h0Z"/>
    </g>
    <g class="cls-6">
      <path class="cls-3" d="m1511.73,1227.58c-18.21-17.89-23.14-45.01-19.65-69.51,1.09-8.17,2.88-16.25,5.62-24.01-2.5,7.83-4.03,15.95-4.87,24.1-1.62,16.17-.14,33.02,6.9,47.81,3.42,7.34,8.31,13.9,14.11,19.46,1.44,1.38-.64,3.58-2.09,2.15h0Z"/>
    </g>
    <g class="cls-6">
      <path class="cls-3" d="m1496.77,1133.39c18.65-14.8,43.35-20.66,66.78-18.27,8.71.96,17.42,2.94,25.66,5.89,13.77,4.84,26.73,12.04,38.56,20.5-10.81-7.43-22.47-13.62-34.73-18.22-28.88-10.71-61.16-9.62-87.44,7.28-2.41,1.56-4.81,3.29-6.89,5.12-1.48,1.27-3.49-.94-1.94-2.28h0Z"/>
    </g>
    <g class="cls-6">
      <path class="cls-3" d="m1589.16,1196.16c-1.57,20.92,6.46,41.73,18.33,58.69,12.15,17.25,28.72,31,46.68,41.9-11.37-6.64-22.18-14.43-31.75-23.51-17.31-16.27-30.67-37.6-34.45-61.31-.83-5.32-1.27-10.61-.8-16.03.05-.55.54-.95,1.09-.9.58.05.98.59.89,1.16h0Z"/>
    </g>
    <g class="cls-6">
      <path class="cls-3" d="m1588.2,1195c31.01-.55,61.66,15.48,78.57,41.5-17.26-25.35-47.83-40.67-78.43-39.5-1.33.12-1.52-1.92-.14-1.99h0Z"/>
    </g>
    <g class="cls-6">
      <path class="cls-3" d="m1326.55,1041.98c-4.36,26.63-.83,54.29,7.33,79.88,6.61,20.19,16.62,39.15,29.22,56.28-11.4-14.27-21.1-30.05-28.27-46.9-7.28-16.92-12.06-34.9-14.16-53.21-1.2-10.74-1.56-21.63-.6-32.43.15-1.58.31-3.07.58-4.76.26-1.64,1.8-2.75,3.43-2.49,1.71.26,2.84,1.95,2.46,3.63h0Z"/>
    </g>
    <g class="cls-6">
      <path class="cls-3" d="m550.84,668.1c-41.47,26.29-93.31,34.56-141.72,32-29.35-1.75-58.39-7.63-86.35-16.6,18.71,5.75,37.86,10.09,57.23,12.76,52.87,7.32,108.93,1.77,156.69-23.13,4.29-2.29,8.56-4.76,12.44-7.5,1.57-1.09,3.37,1.26,1.71,2.46h0Z"/>
    </g>
    <g class="cls-6">
      <path class="cls-3" d="m749.89,1888.99c-27.95,8.99-45.65,36.47-52.05,64-2.29,9.34-3.55,18.91-4.07,28.52.44-9.61,1.62-19.2,3.83-28.57,5.3-23.35,18.03-46.06,38.87-58.8,4.15-2.54,8.48-4.73,13.18-6.12.63-.17.92.81.24.97h0Z"/>
    </g>
    <g class="cls-6">
      <path class="cls-3" d="m751.77,1888c15.7.85,27.75,10.89,28.69,27-1.29-15.83-13.23-25.5-28.69-26-.67.03-.69-1.03,0-1h0Z"/>
    </g>
  </g>
  <g id="iphone">
    <path class="cls-2" d="m1272.27,1650h-640c-70.95,0-129-58.05-129-129v-977h-1.29c-4.81,0-8.71-3.9-8.71-8.71v-90.57c0-4.81,3.9-8.71,8.71-8.71h1.29v-50h-1.29c-4.81,0-8.71-3.9-8.71-8.71v-91.57c0-4.81,3.9-8.71,8.71-8.71h1.29v-145C503.27,59.4,562.67,0,635.27,0h640c72.6,0,132,59.4,132,132v143h2.04c4.39,0,7.96,3.56,7.96,7.96v268.09c0,4.39-3.56,7.96-7.96,7.96h-2.04v956c0,74.25-60.75,135-135,135Z"/>
    <rect class="cls-5" x="539.27" y="34" width="831" height="1580" rx="95.61" ry="95.61"/>
    <rect class="cls-2" x="818.27" y="76" width="272" height="76" rx="38" ry="38"/>
    <circle class="cls-7" cx="1052.02" cy="114.25" r="14.75"/>
    <rect class="cls-4" x="862.27" y="106" width="132" height="19" rx="9.5" ry="9.5"/>
    <path class="cls-1" d="m1299.93,37.38s86.35,1072.19-760.65,1481.01c0,.61-3,94.61,95.61,95.61,93.39.95,639.79,0,639.79,0,0,0,94.61,5,95.61-95.61.89-89.39,0-1388.79,0-1388.79,0,0,3-70.61-70.35-92.23Z"/>
  </g>
</svg>