<?xml version="1.0" encoding="utf-8"?>
<!-- Generator: Adobe Illustrator 28.0.0, SVG Export Plug-In . SVG Version: 6.00 Build 0)  -->
<svg version="1.1" id="Слой_1" xmlns="http://www.w3.org/2000/svg" xmlns:xlink="http://www.w3.org/1999/xlink" x="0px" y="0px"
	 viewBox="0 0 50 50" style="enable-background:new 0 0 50 50;" xml:space="preserve">
<path d="M25,3C12.9,3,3,12.8,3,25c0,11,8.1,20.2,18.7,21.8l1.1,0.2V29.6h-5.2V26h5.2v-4.7c0-2.9,0.7-4.8,1.8-6s2.8-1.8,5.2-1.8
	c1.9,0,2.6,0.1,3.3,0.2v2.9h-2.4c-1.4,0-2.5,0.8-3.1,1.8s-0.8,2.3-0.8,3.5v4H33l-0.5,3.5h-5.6V47l1.1-0.2C38.7,45.4,47,36.1,47,25
	C47,12.8,37.1,3,25,3z M25,5c11.1,0,20,9,20,20c0,9.7-7,17.8-16.2,19.6v-13h5.3l1.2-7.5h-6.5v-2c0-1,0.2-2,0.5-2.5
	c0.3-0.6,0.6-0.8,1.4-0.8h4.4V12l-0.9-0.1c-0.6-0.1-2-0.3-4.4-0.3c-2.7,0-5,0.7-6.6,2.4c-1.6,1.7-2.4,4.2-2.4,7.4V24h-5.2v7.5h5.2
	v12.9C11.8,42.6,5,34.6,5,25C5,13.9,13.9,5,25,5z"/>
</svg>
